<?xml version="1.0" standalone="no"?>
<!DOCTYPE svg PUBLIC "-//W3C//DTD SVG 20010904//EN"
 "http://www.w3.org/TR/2001/REC-SVG-20010904/DTD/svg10.dtd">
<svg version="1.0" xmlns="http://www.w3.org/2000/svg"
 width="297.000000pt" height="297.000000pt" viewBox="0 0 297.000000 297.000000"
 preserveAspectRatio="xMidYMid meet">
<metadata>
Created by potrace 1.14, written by Peter Selinger 2001-2017
</metadata>
<g transform="translate(0.000000,297.000000) scale(0.100000,-0.100000)"
fill="#000000" stroke="none">
<path d="M1316 2486 c-28 -24 -37 -38 -32 -51 6 -16 8 -17 24 -1 10 9 21 16
23 16 3 0 -5 -75 -18 -167 -12 -93 -23 -185 -23 -205 l0 -38 53 0 c129 1 229
109 183 199 -9 17 -27 38 -41 47 l-24 16 31 39 c43 53 51 126 17 158 -19 17
-35 21 -88 21 -60 -1 -70 -4 -105 -34z m152 2 c7 -7 12 -33 12 -59 0 -60 -31
-108 -84 -126 -22 -7 -41 -12 -42 -10 -5 4 24 185 31 197 9 14 68 13 83 -2z
m-12 -216 c16 -11 34 -48 34 -72 0 -32 -36 -95 -66 -115 -15 -9 -41 -18 -58
-19 l-31 -1 3 65 c4 108 12 143 27 130 10 -8 21 -7 42 4 33 18 34 18 49 8z"/>
<path d="M1670 2486 c0 -7 -18 -76 -39 -152 -49 -173 -50 -178 -31 -181 12 -3
27 33 65 159 26 90 50 169 53 176 3 7 -5 12 -22 12 -15 0 -26 -6 -26 -14z"/>
<path d="M1790 2327 c-33 -17 -70 -84 -70 -129 0 -73 74 -87 128 -24 15 18 48
40 74 50 25 9 52 24 59 32 8 10 -1 8 -32 -6 -61 -27 -69 -26 -69 15 0 22 -8
43 -20 55 -23 23 -36 24 -70 7z m60 -57 c0 -32 -4 -40 -18 -40 -10 0 -23 5
-30 12 -25 25 -6 68 30 68 14 0 18 -8 18 -40z m-29 -70 c7 0 5 -8 -6 -20 -37
-41 -75 -12 -61 45 l6 24 25 -25 c13 -13 29 -24 36 -24z"/>
<path d="M2030 2269 c-74 -30 -127 -134 -85 -169 9 -8 29 -10 51 -7 54 9 37
-12 -31 -38 -33 -12 -68 -26 -78 -30 -41 -17 -62 -111 -33 -150 22 -31 58 -6
120 83 65 93 67 95 126 111 50 15 104 40 98 47 -3 2 -30 -5 -62 -17 -32 -11
-62 -19 -67 -17 -4 2 14 34 42 71 50 68 56 93 19 69 -26 -16 -31 -15 -24 2 5
14 -28 57 -43 55 -5 0 -19 -5 -33 -10z m52 -31 c8 -24 -10 -92 -29 -105 -53
-40 -103 -20 -83 33 23 61 100 110 112 72z m-101 -215 c-20 -36 -86 -117 -96
-117 -17 -1 -17 44 -1 69 14 22 78 63 99 65 4 0 3 -8 -2 -17z"/>
<path d="M954 2197 c-25 -22 -28 -32 -35 -123 -8 -112 -15 -136 -38 -132 -14
3 -50 76 -65 133 -5 18 -7 18 -20 5 -19 -19 -7 -67 33 -125 46 -68 90 -53 105
37 l7 38 21 -20 c49 -45 114 -4 142 90 25 83 18 104 -8 26 -33 -97 -74 -128
-115 -87 -29 29 -36 81 -17 126 17 39 30 40 31 2 0 -28 29 -29 33 -1 3 21 -21
54 -38 54 -5 0 -21 -11 -36 -23z"/>
<path d="M734 2196 c-7 -19 3 -36 22 -36 10 0 14 8 12 22 -4 26 -26 36 -34 14z"/>
<path d="M2491 2148 c-45 -24 -62 -60 -70 -145 -4 -49 -13 -90 -24 -107 -36
-55 -127 -73 -142 -27 -8 26 14 69 38 77 19 6 19 8 -8 22 -28 14 -30 13 -52
-13 -50 -57 -8 -139 70 -139 46 0 104 31 134 71 22 28 28 49 32 112 6 82 18
107 59 122 29 11 101 -6 108 -26 9 -22 -14 -53 -53 -74 -37 -18 -37 -18 -14
-31 19 -10 28 -9 48 1 32 17 56 65 49 94 -13 53 -121 92 -175 63z"/>
<path d="M630 1954 c0 -19 7 -42 15 -50 8 -9 15 -26 15 -39 0 -13 5 -27 11
-31 8 -5 9 6 4 35 -4 22 -3 41 2 40 4 0 28 -10 53 -22 32 -16 46 -29 48 -46 4
-22 1 -23 -32 -17 -31 6 -36 4 -36 -12 0 -33 48 -43 74 -16 17 17 21 70 7 93
-5 7 -33 23 -62 35 -40 16 -55 27 -57 44 -2 14 -10 22 -23 22 -15 0 -19 -7
-19 -36z"/>
<path d="M2594 1860 c-5 -5 -84 -40 -174 -78 -141 -58 -165 -72 -168 -92 -4
-26 -13 -29 121 34 89 41 97 44 97 25 0 -11 17 -38 38 -60 29 -29 50 -41 83
-47 42 -8 43 -9 22 -20 -31 -17 -30 -55 3 -81 15 -12 34 -21 42 -21 13 0 13
-2 -2 -13 -11 -8 -17 -23 -14 -38 2 -19 13 -27 49 -39 l46 -15 -29 -23 c-50
-42 -31 -106 46 -147 41 -22 45 -32 14 -37 -31 -4 -53 -47 -44 -84 8 -30 106
-134 128 -134 6 0 -14 24 -45 53 -46 43 -57 59 -57 85 0 20 6 35 18 41 15 8
27 1 65 -40 38 -40 53 -50 75 -47 21 2 28 9 30 29 4 31 -42 76 -117 113 -101
52 -134 101 -94 141 22 23 114 16 143 -10 22 -20 17 -43 -5 -25 -16 13 -35 5
-35 -14 0 -15 35 -27 56 -19 19 7 27 39 14 62 -14 28 -40 40 -145 70 -123 36
-119 56 18 86 15 3 25 9 22 14 -2 5 2 11 10 15 20 7 19 40 -2 58 -25 21 -114
48 -158 48 -39 0 -105 24 -105 38 0 5 21 12 46 15 53 6 98 34 102 66 3 17 -5
25 -33 37 -30 12 -34 18 -25 29 21 25 -12 49 -36 25z m54 -86 c4 -25 -33 -44
-82 -44 -29 0 -36 5 -44 29 -13 37 -6 41 68 38 47 -2 55 -5 58 -23z m115 -178
c25 -6 39 -26 17 -26 -5 0 -9 -5 -7 -12 6 -28 -92 -35 -124 -9 -20 16 -21 21
-10 34 7 9 25 18 39 20 28 4 38 3 85 -7z m100 -429 c18 -8 38 -21 46 -30 11
-14 11 -18 -2 -23 -18 -7 -64 21 -78 47 -12 23 -8 23 34 6z"/>
<path d="M497 1823 c-15 -14 -7 -63 12 -72 19 -11 36 -51 21 -51 -5 0 2 -24
15 -52 26 -56 32 -98 14 -98 -5 0 -33 18 -62 39 -28 22 -54 36 -57 31 -3 -5
-12 -5 -20 0 -36 22 -52 -41 -26 -103 19 -47 82 -99 114 -95 25 3 27 6 27 55
-1 48 1 52 25 55 32 4 38 43 14 89 -9 18 -17 44 -18 58 -1 14 -6 37 -10 50 -8
23 -7 23 29 17 56 -11 85 -27 85 -48 0 -13 -8 -18 -30 -18 -24 0 -30 -4 -30
-21 0 -17 5 -20 31 -17 43 4 55 26 43 75 -9 39 -13 42 -100 63 -28 7 -43 17
-47 30 -5 20 -18 26 -30 13z m-11 -268 c54 -52 42 -120 -14 -78 -30 22 -72 79
-72 98 0 25 51 12 86 -20z"/>
<path d="M180 1480 c0 -12 9 -24 23 -29 12 -5 80 -43 151 -84 123 -73 146 -81
146 -54 -1 13 -273 180 -302 185 -13 2 -18 -3 -18 -18z"/>
<path d="M1805 1399 c-38 -33 -97 -81 -130 -106 -84 -65 -132 -111 -168 -163
-30 -44 -46 -97 -25 -84 6 4 19 -3 28 -16 40 -52 117 11 214 175 33 55 75 120
95 145 58 71 67 89 21 40 -52 -56 -138 -170 -173 -232 -15 -25 -50 -67 -79
-92 l-53 -46 -24 25 c-20 20 -23 27 -13 37 11 11 17 8 32 -12 15 -19 20 -21
20 -8 0 9 -9 23 -19 30 -19 13 -18 15 11 53 17 22 63 66 102 97 74 61 245 217
236 217 -3 0 -36 -27 -75 -60z"/>
<path d="M140 1334 c-26 -11 -40 -37 -40 -76 0 -75 56 -138 170 -192 112 -52
238 -46 270 13 24 45 3 111 -46 150 -37 29 -44 17 -10 -18 53 -55 43 -121 -20
-137 -63 -16 -237 52 -306 119 -32 31 -39 44 -36 70 3 30 5 32 41 31 25 -1 47
-9 63 -25 22 -20 26 -21 40 -8 29 30 -6 65 -73 73 -21 3 -45 3 -53 0z"/>
<path d="M1406 955 c-21 -25 -34 -45 -29 -45 8 1 77 90 70 90 -3 0 -21 -20
-41 -45z"/>
<path d="M1436 930 c-26 -22 -44 -40 -38 -40 10 0 101 79 92 80 -3 0 -27 -18
-54 -40z"/>
<path d="M1516 923 c-9 -21 34 -63 64 -63 10 0 22 -5 26 -11 4 -8 -3 -9 -26
-4 -23 5 -30 4 -26 -4 10 -16 56 -13 62 4 4 8 14 15 24 15 16 0 50 29 50 44 0
3 -11 -1 -25 -10 -29 -19 -118 -15 -138 5 -9 10 -3 11 28 5 50 -10 94 -9 105
2 5 5 -11 8 -39 6 -33 -3 -57 1 -74 12 -23 16 -25 16 -31 -1z"/>
<path d="M1362 878 c7 -15 15 -23 17 -17 2 6 -4 18 -13 27 -15 15 -15 15 -4
-10z"/>
<path d="M1292 878 c-5 -7 -17 -29 -27 -48 -9 -19 -36 -57 -58 -85 -39 -47
-40 -48 -9 -22 27 21 44 27 82 27 41 0 52 4 69 26 12 15 21 34 21 43 -1 12 -3
12 -12 -4 -17 -33 -40 -45 -80 -45 l-37 0 27 48 c16 26 39 53 53 59 23 12 23
13 3 13 -12 0 -26 -6 -32 -12z"/>
<path d="M1472 850 c-23 -10 -69 -96 -58 -107 3 -4 15 15 27 41 13 29 30 51
45 56 13 5 24 12 24 15 0 7 -11 5 -38 -5z"/>
<path d="M1690 830 c14 -11 31 -25 38 -30 6 -6 12 -28 12 -50 0 -21 5 -42 11
-46 15 -9 7 102 -8 117 -5 5 -25 14 -44 19 l-34 9 25 -19z"/>
<path d="M1306 815 c-11 -8 -15 -15 -9 -15 6 0 16 7 23 15 16 19 11 19 -14 0z"/>
<path d="M1520 797 c43 -21 45 -24 48 -72 4 -58 22 -87 22 -34 0 85 -33 130
-93 128 -16 0 -10 -6 23 -22z"/>
<path d="M1655 799 c-35 -10 -55 -34 -55 -63 1 -17 4 -16 17 9 20 37 31 45 66
45 15 0 27 5 27 10 0 12 -14 12 -55 -1z"/>
<path d="M1420 691 c0 -9 95 -51 114 -51 11 1 -93 59 -106 60 -5 0 -8 -4 -8
-9z"/>
<path d="M1675 650 c-44 -21 -74 -39 -66 -39 20 -1 151 60 151 70 0 5 -1 9 -2
8 -2 0 -39 -18 -83 -39z"/>
</g>
</svg>
